<svg xmlns="http://www.w3.org/2000/svg" height="278.27" width="249.14" viewBox="0 0 199.61101 222.45578">
 <g transform="matrix(.7225 0 0 .7225 .78338 .45021)">
  <path d="m181.92 0.59766-2.07 2.4335c27.326 22.709 58.892 67.246 58.912 123.64-0.0211 56.514-31.462 100.93-58.912 123.63l2.0723 2.4219c42.562-19.97 83.875-69.898 83.875-126.06 0-56.292-41.313-106.22-83.875-126.06zm-21.455 0.025391c-42.68 19.97-83.874 69.896-83.874 126.07 0 5.5667 0.40068 11.085 1.1758 16.477 7.0146 49.302 44.309 91.613 82.627 109.59l0.49805 0.17578 2.0723-2.4219c-27.334-22.716-58.914-67.275-58.914-123.69 0-56.541 31.455-100.98 58.914-123.69l-2.4961-2.4961z" fill="#c28c19" transform="matrix(.80119 0 0 .80119 0 -.33892)"/>
  <path d="m108.21 59.211c-12.876 19.596-21.339 42.559-21.339 67.149 0 24.963 8.363 47.43 21.344 67.4h0.66797c-8.787-19.97-14.479-42.562-14.479-67.15 0-24.589 5.6541-47.305 14.479-67.15h-0.66797v-0.25zm125.76 0.25c8.787 19.97 14.479 42.562 14.479 67.15 0 24.589-5.6541 47.305-14.479 67.15h0.67382c12.868-19.596 21.344-42.562 21.344-67.15 0-24.589-8.363-47.679-21.344-67.15h-0.67382z" transform="matrix(.80119 0 0 .80119 0 -.33892)" fill="#fff"/>
  <path d="m153.52 90.041v9.0488h36.572v-9.0488h-36.572zm-0.37304 21.293v9.0371h36.57v-9.0371h-36.57zm0 21.08v9.0508h36.57v-9.0508h-36.57zm0 21.219v9.0488h36.57v-9.0488h-36.57zm40.502 135.12c-6.6526 0-8.9238 2.8968-8.9238 5.9922v13.604c0 3.0829 2.2712 5.9785 8.9238 5.9785h1.6484c6.6402 0 8.9238-2.8956 8.9238-5.9785v-13.604c0-3.0829-2.2712-5.9922-8.9238-5.9922h-1.6484zm22.467 0c-6.6402 0-8.9238 2.8968-8.9238 5.9922v13.604c0 3.0829 2.2712 5.9785 8.9238 5.9785h1.6465c6.6402 0 8.9258-2.8956 8.9258-5.9785v-13.604c0-3.0829-2.2731-5.9922-8.9258-5.9922h-1.6465zm12.42 0.3125v8.4121h4.1055v-4.293h4.5938v16.725h-2.5469v4.1191h10.035v-4.1191h-2.5332v-16.725h4.5918v4.293h4.0957v-8.4121h-22.342zm-108.73 0.0371c-6.6526 0-8.9258 2.8948-8.9258 5.9902v13.605c0 3.0954 2.2731 5.9922 8.9258 5.9922h1.373c6.6402 0 8.623-2.8968 8.623-5.9922v-7.4141h-8.8984v4.1191h4.0938v2.459c0 1.7973-1.2853 2.7082-3.7441 2.7207h-1.4473c-2.4713 0-3.9316-0.91554-3.9316-2.7578v-11.82c0-1.8348 1.4728-2.7578 3.9316-2.7578h1.4355c2.4589 0 3.7441 0.91555 3.7441 2.7578v1.5098h4.8047l0.0117-0.0371v-2.3848c0-3.0829-1.9829-5.9902-8.623-5.9902h-1.373zm42.475 0v4.1191h2.5332v16.725h-2.5332l-0.0254 0.0137v4.1172h10.609v-4.1172h-3.1211v-6.1914h6.6894v-4.1445h-6.6894v-6.4024h8.2637v4.293h4.1191v-8.4121h-19.846zm-29.98 0.0117v4.1074h2.5332v16.725h-2.5332v0.0137 4.1055h19.844v-8.4121h-4.1172v4.3066h-8.2754v-6.1914h6.6894v-4.1445h-6.6894v-6.4024h8.2754v4.3066h4.1172v-8.4141h-19.844zm-101.41 0.26367c-6.6402 0-8.9258 2.8948-8.9258 5.9902v13.605c0 3.0829 2.2731 5.9785 8.9258 5.9785h1.6465c6.6526 0 8.9238-2.8956 8.9238-5.9785v-13.605c0-3.0829-2.2712-5.9902-8.9238-5.9902h-1.6465zm-21.98 0.0274c-6.5153 0-8.7871 3.7439-8.7871 6.2402v13.605c0 3.0954 2.272 5.9902 8.9121 5.9902l-0.125-0.28906h1.373v-0.01c6.5902-0.0243 8.5625-2.9081 8.5625-5.9785v-3.1953h-4.8066v2.3203c0 1.8348-1.2853 2.7598-3.7441 2.7598h-1.373c-2.4589 0-3.9316-0.92249-3.9316-2.7598v-11.82c0-1.8348 1.4728-2.7578 3.9316-2.7578h1.373v0.006c2.4589 0 3.7441 0.92054 3.7441 2.7578v1.7969h4.8066v-2.6836c0-3.0704-1.9723-5.9536-8.5625-5.9785v-0.004h-1.373zm79.707 0.27148v4.1055h2.5332v16.727h-2.5332v4.1055h19.846v-8.4004h-4.1074v4.3066h-8.2617v-6.1914h6.6895v-4.1426h-6.6895v-6.4043h8.2617v4.3066h4.1074v-8.4121h-19.846zm163.68 0.11328v0.0117 4.1191h2.5332v16.725h-2.5332v4.1191h12.855c6.6526 0 7.9629-2.7218 7.9629-5.8047v-2.8945c0-2.022-1.3982-3.5696-3.8945-4.4434 1.9222-0.88244 2.7598-2.3226 2.7598-4.1074v-2.1719c0-3.0829-1.3247-5.5527-7.9648-5.5527h-11.719zm48.801 0v4.1172h2.5332v16.727h-2.5332v4.1191h19.721v-8.5391h-0.0508-4.1055v4.4199h-8.0762v-16.727h2.5352v-4.1172h-10.023zm21.219 0v4.1172h2.5332v16.727h-2.5332v4.1191h19.721v-8.5391h-0.0508-4.1172v4.4199h-8.0644v-16.727h2.5352v-4.1172h-10.023zm-278.1 0.0117v4.1055h2.5332v16.727h-2.5332v4.1191h19.721v-8.5254l-0.03906-0.0137h-4.1172v4.4199h-8.0645v-16.727h2.5352v-4.1055h-10.035zm21.979 0v4.1055h2.5352v16.727h-2.5352v4.1191h19.721v-8.5254l-0.04883-0.0137h-4.1074v4.4199h-8.0742v-16.727h2.5332v-4.1055h-10.023zm217.31 0.3125-7.6387 20.844h-2.0469v4.1191h9.1113v-4.1191h-0.01-2.3828c0.29206-0.86247 0.61302-1.8473 0.96874-2.9082h8.5625c0.34574 1.0584 0.67761 2.047 0.96094 2.9082h-2.3828v4.1191h9.0977v-4.1191h-1.7832l-7.6016-20.844h-4.8555zm-89.863 2.7695h1.6484c2.4588 0 3.9316 0.9175 3.9316 2.7598v11.818c0 1.8473-1.4728 2.7598-3.9316 2.7598h-1.6484c-2.4588 0-3.9316-0.91749-3.9316-2.7598v-11.818c0-1.8348 1.4728-2.7598 3.9316-2.7598zm22.467 0h1.6465c2.4589 0 3.9336 0.9175 3.9336 2.7598v11.818c0 1.8473-1.4747 2.7598-3.9336 2.7598h-1.6465c-2.4589 0-3.9316-0.91749-3.9316-2.7598v-11.818c0-1.8348 1.4728-2.7598 3.9316-2.7598zm-185.22 0.58789h1.6465c2.4589 0 3.9316 0.91555 3.9316 2.7578v11.82c0 1.8348-1.4728 2.7578-3.9316 2.7578h-1.6465c-2.4589 0-3.9316-0.91554-3.9316-2.7578v-11.82c0-1.8348 1.4728-2.7578 3.9316-2.7578zm228.94 0.41211h4.2305c2.4589 0 3.0449 0.51093 3.0449 2.3457v1.1367c0 1.8722-0.58084 2.7578-2.9336 2.7578h-4.3418v-6.2402zm25.998 1.0977c0.0146 0.22467 1.46 4.6301 2.9453 9.1484h-5.9414c1.5103-4.5183 2.9586-8.9238 2.9961-9.1484zm-25.998 8.8984h5.3672c2.4589 0 3.084 0.95749 3.084 2.5352v1.498c0 1.8348-0.62014 2.7207-3.084 2.7207h-5.3672v-6.7539zm-40.141 21.543c-14.853 0-19.971 6.5033-19.971 13.48v30.455c0 6.9148 5.1052 13.48 19.971 13.48h3.6934c14.853 0 19.971-6.5033 19.971-13.48v-30.455c0-6.9272-5.1052-13.48-19.971-13.48h-3.6934zm29.068 0.63672v9.2246h5.6797v37.568h-5.6797v9.2246h23.84v-9.2246h-7.002v-13.854h14.979v-9.3106h-14.979v-14.354h18.598v9.6348h9.2226l-0.0996-0.0625v-18.848h-44.559zm48.678 0v9.2246h5.6797v37.568h-5.6797v9.2246h23.84v-9.2246h-6.9902v-13.854h14.979v-9.3106h-14.979v-14.354h18.598v9.6348h9.2246l-0.11328-0.0625v-18.848h-44.559zm-177.79 0.375-17.1 46.807h-4.5938v9.2227h20.469v-9.2227h-0.11133-5.3301c0.64405-1.9346 1.3855-4.1449 2.1719-6.5039h19.221c0.78009 2.359 1.5228 4.5693 2.1719 6.5039h-5.3535v9.2227h20.469v-9.2227h-4.0059l-17.1-46.807h-10.908zm-71.27 0.40039v9.2227h5.6777v37.57h-5.6289v9.2109h44.061v-19.098h-9.2246v9.8867h-18.098v-37.57h5.6797v-9.2227h-22.467zm0.04883 46.793v-0.0137l-0.04883 0.0137h0.04883zm-48.391-46.781v9.2246h5.6797v37.568h-5.6797v9.2246h22.467v-9.125h-5.6543v-8.8125h8.1504c14.853 0 19.971-6.5014 19.971-13.479v-11.121c0-6.9148-5.0304-13.48-19.971-13.48h-24.963zm22.467 46.893h0.02539l-0.02539-0.0996v0.0996zm121.1-46.71v9.1621h5.791l15.227 26.709v10.873h-5.6406v9.2227h22.467v-9.2227h-5.6426v-12.184l14.979-25.336h6.7402v-9.2246h-22.467v9.2246h4.7051c-4.0315 6.715-9.4735 15.727-9.5234 15.977-0.0537-0.20469-5.0915-9.2615-8.8359-15.977h4.668v-9.2246h-22.467zm0 9.1621h-0.0879l0.0879 0.0625v-0.0625zm76.023-1.4356h3.6953c5.5168 0 8.8125 2.0588 8.8125 6.1777v26.461c0 4.1189-3.2957 6.1777-8.8125 6.1777h-3.6953c-5.5168 0-8.8106-2.0588-8.8106-6.1777v-26.461c0-4.1189 3.2937-6.1777 8.8106-6.1777zm-202.8 1.4356h8.1504c5.5168 0 8.8867 2.0464 8.8867 6.1777v7.2402c0 4.0315-3.3824 6.1016-8.8867 6.1016h-8.1504v-19.52zm107.94 1.248h0.0254c0.0439 0.51174 3.2702 10.359 6.6152 20.469h-13.355c3.3825-10.135 6.64-19.969 6.7148-20.469z" transform="matrix(.80119 0 0 .80119 0 -.33892)"/>
 </g>
</svg>
