<svg xmlns="http://www.w3.org/2000/svg" width="117" height="120" viewBox="0 0 117 120"><g><g><g><g><path fill="#949ca1" d="M117 28.383l-1.661-.53a192.244 192.244 0 0 0-6.702-2.006l-1.961-9.019h-6.285c-4.53 0-7.867-5.906-8.003-6.155l-1.615-3.178L58.5 0 26.227 7.495l-1.615 3.178c-.14.254-3.477 6.155-8.007 6.155h-6.28l-1.962 9.019a192.244 192.244 0 0 0-6.702 2.006L0 28.383l5.228 32.442 3.229 4.56c1.006-.308 2.012-.604 3.023-.894 1.24 2.92 2.677 6.065 4.329 9.332 7.034 13.894 19.478 32.77 38.84 43.772l3.851 2.19 3.852-2.19c19.36-11.006 31.805-29.878 38.839-43.772a151.994 151.994 0 0 0 4.329-9.332c1.01.29 2.017.586 3.023.895l3.23-4.561z"/></g><g><path fill="#b5121b" d="M102.74 58.214c-1.484 3.769-44.24 50.466-44.24 50.466S15.744 61.978 14.26 58.214c-2.28.6-4.549 1.242-6.814 1.931l1.863 2.686c1.198-.356 2.4-.693 3.603-1.022a150.88 150.88 0 0 0 4.704 10.233c6.907 13.646 19.108 32.17 38.034 42.928l2.855 1.622 2.854-1.622c18.922-10.757 31.127-29.282 38.035-42.928a150.88 150.88 0 0 0 4.703-10.233c1.203.329 2.406.67 3.604 1.022l1.862-2.686a189.98 189.98 0 0 0-6.823-1.93z"/></g><g><path fill="#b5121b" d="M105.047 18.858h-4.656c-5.804 0-9.636-6.938-9.79-7.228l-1.208-2.377L58.5 2.077 27.603 9.248l-1.208 2.377c-.154.29-3.987 7.228-9.79 7.228h-4.657l-1.39 6.394c.936-.249 1.881-.492 2.817-.727 0 0 33.575-9.876 45.12-9.886 11.546-.004 45.12 9.886 45.12 9.886s2.691.694 2.818.732z"/></g><g><path fill="#b5121b" d="M110.144 58.208c-34.038-10.401-69.255-10.401-103.292 0-1.526-9.483-3.057-18.96-4.578-28.425 37.02-11.817 75.433-11.817 112.452 0-1.526 9.464-3.052 18.942-4.582 28.425"/></g><g><path fill="#002b54" d="M58.5 18.895c15.107 0 30.237 1.89 45.12 5.62l-.665-3.056h-2.56c-7.553 0-12.055-8.545-12.097-8.634l-.67-1.317L58.5 4.753l-29.124 6.76-.669 1.317c-.047.084-4.544 8.634-12.098 8.634h-2.56l-.664 3.056c14.878-3.736 30.008-5.625 45.115-5.625"/></g><g><path fill="#002b54" d="M58.5 52.434c-14.812 0-29.667 1.946-44.24 5.78a149.313 149.313 0 0 0 5.672 12.652c6.744 13.326 18.636 31.406 36.996 41.84l1.567.89 1.568-.89c18.36-10.439 30.252-28.514 36.996-41.84a149.313 149.313 0 0 0 5.672-12.652c-14.564-3.834-29.414-5.78-44.231-5.78"/></g><g><path fill="#fff" d="M96.497 58.425a128.918 128.918 0 0 1-4.947 11.058c-3.491 6.9-8.592 15.281-15.551 22.81.411.65.58 1.373.716 2.357 7.375-7.823 12.743-16.608 16.384-23.798a129.053 129.053 0 0 0 5.312-11.977c-.636-.155-1.273-.305-1.914-.45"/></g><g><path fill="#fff" d="M75.025 95.11c-.196-1.515-.332-1.937-1.207-2.64a1.19 1.19 0 0 0-.773-.28c-1.015 0-2.279 1.204-3.27 2.25-1.878 1.982-5.51 4.691-5.659 4.804-3.557 2.728-7.043 4.354-9.323 4.354-.168 0-.332-.009-.486-.023l-.07-.01C40.15 94.454 30.865 80.18 25.45 69.484a128.918 128.918 0 0 1-4.947-11.058c-.636.145-1.273.295-1.914.445a130.162 130.162 0 0 0 5.312 11.977c5.887 11.634 16.286 27.426 32.4 36.581l2.199 1.252 2.2-1.252c4.703-2.672 8.91-5.91 12.668-9.445l.028-.019c1.526-1.336 1.662-1.96 1.63-2.855"/></g><g><path fill="#fff" d="M58.5 8.02l-26.961 6.253s-1.559 3.085-4.545 5.893a201.2 201.2 0 0 0-3.669.67c4.287-2.752 6.632-7.28 6.67-7.345l.364-.722L58.5 6.239l28.146 6.53.37.722c.032.065 2.381 4.593 6.668 7.345a201.2 201.2 0 0 0-3.669-.67c-2.986-2.803-4.544-5.893-4.544-5.893z"/></g><g><path fill="#fff" d="M83.267 61.388l3.449 1.007-2.897 2.128.107 3.596-2.915-2.1-3.38 1.214 1.096-3.427-2.195-2.845 3.59-.014 2.021-2.972zm-15.66-1.5l3.6.684-2.734 2.447.463 3.642-3.168-1.847-3.313 1.566.772-3.59-2.513-2.673 3.645-.375 1.76-3.22zm5.874 11.943l1.348 3.413 3.57.825-2.826 2.339.323 3.656-3.094-1.969-3.374 1.435.912-3.553-2.405-2.77 3.655-.23zM34.857 57.98l2.021 2.972 3.59.014-2.195 2.845 1.095 3.426-3.379-1.214-2.915 2.1.107-3.595-2.897-2.128 3.45-1.008zm16.033-1.467l1.76 3.22 3.646.375-2.513 2.672.772 3.59-3.314-1.565-3.168 1.847.463-3.643-2.733-2.446 3.6-.685zm-5.47 18.459l3.654.23-2.405 2.77.913 3.553-3.375-1.434-3.093 1.968.318-3.656-2.827-2.339 3.571-.825 1.348-3.412zm13.075 10.79l1.624 3.291 3.627.53-2.62 2.564.617 3.619-3.243-1.707-3.243 1.707.618-3.62-2.626-2.563 3.627-.53zm.005-14.751l1.624 3.29 3.627.53-2.62 2.564.617 3.62-3.243-1.707-3.244 1.706.618-3.619-2.625-2.564 3.627-.53z"/></g><g><path fill="#fff" d="M103.915 34.927l.238 2.971c1.671.436 3.333.9 4.999 1.383.182-2.71.355-5.418.524-8.128a188.541 188.541 0 0 0-10.165-2.658c-2.335-.534-3.066-.623-5.588.755-2.246 1.242-2.354 1.57-2.527 3.427-.365 3.834-.726 7.668-1.09 11.503-.183 1.893-.188 2.489 1.796 4.692 2.12 2.376 2.771 2.517 4.727 2.916 3.248.726 6.487 1.546 9.72 2.46.684-2.78 1.372-5.559 2.07-8.334a191.698 191.698 0 0 0-4.98-1.378c-.347.937-.693 1.875-1.035 2.812-.529 1.524-.744 1.604-2.396 1.196-1.97-.474-2.738-.811-3.159-1.378-.379-.558-.463-1.252-.346-2.307.384-3.37.772-6.745 1.156-10.115.187-1.64.412-2.522 3.262-1.842 2.429.595 2.714.684 2.794 2.025m-18.023-9.01c-2.686-.412-5.382-.76-8.073-1.045-.168 3.122-.332 6.239-.5 9.36a180.62 180.62 0 0 0-6.356-.552c.107-3.127.22-6.258.327-9.385-2.71-.187-5.424-.314-8.138-.375-.019 1.332-.033 2.663-.047 3.994.473.01.945.024 1.418.038-.084 5.236-.164 10.471-.248 15.707-.45-.014-.903-.028-1.352-.037-.014 1.331-.033 2.662-.047 3.994 2.532.056 5.064.168 7.59.342.118-3.417.24-6.84.356-10.256 2.097.14 4.189.323 6.281.543l-.548 10.233c2.514.258 5.022.572 7.53.942.104-1.322.202-2.639.305-3.96-.45-.066-.899-.132-1.348-.193.379-5.198.758-10.397 1.132-15.595.473.07.941.136 1.414.21.098-1.326.201-2.648.304-3.965m-34.435 3.39c.229.95.458 1.907.683 2.859 1.69-.066 3.379-.108 5.068-.127-.234-2.728-.472-5.456-.72-8.184-3.43.051-6.861.201-10.292.45-2.358.178-3.084.31-5.335 2.418-2.003 1.894-2.054 2.246-1.951 4.116.224 3.863.453 7.73.678 11.592.108 1.908.192 2.494 2.462 4.078 2.424 1.716 3.084 1.664 5.05 1.486 3.276-.23 6.552-.365 9.832-.407.244-2.949.492-5.893.749-8.836-1.685.014-3.365.051-5.05.112a711.545 711.545 0 0 0-.58 3.08c-.286 1.66-.482 1.795-2.153 1.884-1.989.108-2.79.005-3.285-.431-.454-.436-.641-1.092-.683-2.166a7550.05 7550.05 0 0 1-.403-10.284c-.065-1.669.023-2.602 2.897-2.79 2.462-.144 2.752-.144 3.033 1.15m-18.767-3.46c-2.34.347-4.676.745-7.006 1.19.632 5.808 1.254 11.616 1.877 17.424a389.188 389.188 0 0 0-8.78-15.97 190.055 190.055 0 0 0-11.452 3.028c.196 1.289.388 2.578.585 3.867l1.395-.408c.748 5.077 1.492 10.158 2.241 15.24-.444.121-.889.252-1.334.379.192 1.289.389 2.583.585 3.872a182.102 182.102 0 0 1 6.716-1.796A8197.804 8197.804 0 0 0 14.7 33.511a374.666 374.666 0 0 1 10.067 17.531 171.932 171.932 0 0 1 8.367-1.49l-1.558-19.529c.473-.075.94-.145 1.413-.215-.098-1.322-.2-2.64-.3-3.961"/></g></g></g></g></svg>